{"glyphs":{" ":{"ha":417,"x_min":0,"x_max":0,"o":""},"!":{"ha":407,"x_min":33,"x_max":383,"o":"m 167 242 q 69 669 94 500 q 35 1019 51 781 q 58 1057 33 1042 q 114 1072 83 1072 q 163 1046 154 1072 q 240 806 201 926 q 276 624 264 728 q 311 225 285 546 q 263 190 314 190 q 201 205 231 190 q 167 242 172 219 m 175 33 q 206 107 175 76 q 279 138 236 138 q 353 107 322 138 q 383 33 383 76 q 353 -40 383 -10 q 279 -71 322 -71 q 206 -40 236 -71 q 175 33 175 -10 z "},"\"":{"ha":308,"x_min":25,"x_max":271,"o":"m 32 946 q 56 818 36 915 q 90 792 63 792 q 126 828 131 792 q 119 906 124 867 q 106 951 117 935 q 64 968 96 968 q 32 946 25 968 m 185 944 q 196 825 185 885 q 239 796 201 796 q 268 817 271 796 q 257 933 261 864 q 210 961 256 961 q 185 944 185 961 z "},"$":{"ha":1149,"x_min":-75,"x_max":1099,"o":"m 439 1038 q 353 1002 390 1026 q 296 958 315 978 q 272 914 272 933 q 461 854 272 850 q 439 1038 447 947 m 758 558 q 811 563 801 561 q 855 590 839 569 q 871 636 871 610 q 828 730 871 685 q 735 776 785 775 q 758 558 747 669 m 621 0 q 597 51 617 24 q 574 97 578 78 q 353 54 461 54 q 0 131 236 54 q -75 206 -75 156 q -25 342 -75 243 q 101 388 -11 368 q 344 407 213 407 q 542 390 458 407 q 483 719 517 529 q 306 686 364 686 q 167 710 243 686 q 98 731 132 719 q 39 765 64 742 q -3 864 -3 806 q 114 1089 -3 971 q 428 1225 185 1161 q 425 1407 425 1308 q 468 1470 425 1443 q 558 1497 511 1497 q 625 1457 615 1497 q 664 1274 644 1381 q 897 1293 796 1293 q 1099 1221 1099 1293 q 1060 1147 1099 1190 q 1024 1111 1039 1125 q 857 1051 956 1051 q 697 1067 850 1051 q 719 897 708 986 q 843 915 785 915 q 1051 799 999 915 q 1068 724 1068 761 q 1055 647 1068 690 q 1028 561 1042 603 q 786 222 963 340 q 797 50 793 133 q 758 -9 799 17 q 675 -35 718 -35 q 621 0 626 -35 z "},".":{"ha":279,"x_min":28,"x_max":243,"o":"m 28 33 q 59 107 28 76 q 136 138 90 138 q 212 107 181 138 q 243 33 243 76 q 212 -40 243 -10 q 136 -71 181 -71 q 59 -40 90 -71 q 28 33 28 -10 z "},"A":{"ha":1181,"x_min":22,"x_max":1144,"o":"m 915 69 q 862 67 897 69 q 810 64 826 64 q 704 110 739 64 q 692 143 692 126 q 749 235 692 174 q 807 333 807 297 q 800 361 807 347 q 668 422 772 422 q 494 375 571 422 q 443 261 413 322 q 472 150 472 201 q 371 33 472 47 q 302 51 335 28 q 239 97 269 74 q 76 286 133 169 q 22 526 22 396 q 156 906 22 739 q 589 1128 333 1128 q 732 1111 658 1128 q 1031 842 907 1072 q 1144 400 1144 628 q 1090 167 1144 254 q 915 69 1031 71 m 764 758 q 678 881 742 838 q 528 922 614 924 q 386 879 444 921 q 303 758 324 835 q 296 707 296 733 q 369 545 296 617 q 536 474 442 474 q 700 545 629 474 q 771 707 771 617 q 764 758 771 733 z "},"B":{"ha":1107,"x_min":-49,"x_max":1060,"o":"m 1008 410 q 1060 314 1060 365 q 850 93 1060 199 q 449 -8 647 -8 q 356 0 397 -8 q 57 256 168 40 q -24 679 -49 458 q 171 1006 3 915 q 303 1053 235 1040 q 443 1069 333 1060 q 640 1079 553 1079 q 992 963 935 1079 q 1033 813 1033 876 q 888 646 1033 696 q 618 594 846 631 q 475 518 474 571 q 510 482 476 482 q 578 492 522 482 q 675 501 633 501 q 858 488 804 500 q 1008 410 939 469 m 511 894 q 428 933 481 933 q 335 914 392 933 q 228 847 274 893 q 178 746 178 797 q 194 693 178 718 q 293 643 228 643 q 432 693 364 643 q 531 840 531 765 q 511 894 531 869 m 453 379 q 356 338 388 379 q 333 268 333 310 q 371 164 333 211 q 464 113 411 113 q 563 156 521 113 q 606 256 606 199 q 559 346 606 313 q 453 379 513 379 z "},"C":{"ha":1135,"x_min":35,"x_max":1101,"o":"m 1097 728 q 1101 696 1101 711 q 917 576 1101 603 q 574 551 746 564 q 389 457 389 533 q 401 410 389 436 q 521 339 435 339 q 750 398 589 339 q 971 457 911 457 q 1076 378 1056 457 q 1088 292 1088 333 q 971 22 1088 178 q 703 -100 878 -100 q 258 76 472 -100 q 38 476 35 261 q 221 872 40 701 q 625 1043 401 1043 q 786 1014 708 1043 q 985 910 917 965 q 1097 728 1068 839 z "},"D":{"ha":1197,"x_min":69,"x_max":1153,"o":"m 1146 697 q 1153 624 1153 663 q 1029 271 1153 463 q 747 -29 914 94 q 442 -157 575 -157 q 265 -31 314 -157 q 150 426 190 163 q 72 1014 111 719 q 69 1047 69 1031 q 158 1193 69 1143 q 372 1236 238 1236 q 641 1197 501 1236 q 876 1094 781 1158 q 1055 926 993 1017 q 1146 697 1117 835 m 778 578 q 733 769 782 692 q 596 890 692 835 q 429 944 500 944 q 356 875 354 944 q 443 228 364 465 q 499 178 460 178 q 674 321 574 178 q 778 578 774 464 z "},"E":{"ha":883,"x_min":17,"x_max":856,"o":"m 853 221 q 699 13 849 97 q 396 -67 561 -67 q 215 -28 288 -67 q 122 96 136 15 q 24 954 47 532 q 160 1164 17 1076 q 451 1246 290 1246 q 701 1111 654 1246 q 725 993 725 1043 q 701 882 725 940 q 553 811 674 811 q 433 821 514 811 q 321 831 353 831 q 229 771 229 831 q 231 753 229 763 q 297 619 243 676 q 356 593 322 593 q 520 674 407 593 q 674 754 633 754 q 733 704 711 754 q 751 621 751 664 q 731 522 751 578 q 604 457 707 457 q 513 463 575 457 q 425 469 451 469 q 318 399 326 469 q 332 288 313 342 q 393 242 349 242 q 578 324 442 242 q 765 406 714 406 q 831 361 810 406 q 853 221 856 307 z "},"F":{"ha":628,"x_min":-1,"x_max":615,"o":"m 604 564 q 531 521 588 521 q 480 524 515 521 q 426 528 444 528 q 349 504 376 528 q 315 432 315 475 q 388 258 315 379 q 461 90 461 136 q 418 22 461 46 q 242 -32 321 -32 q 153 29 165 -32 q 56 447 104 238 q 0 857 8 657 q 68 925 -1 903 q 201 958 135 942 q 318 1010 217 964 q 425 1042 385 1042 q 503 1004 471 1042 q 547 875 549 951 q 458 814 546 814 q 374 820 432 814 q 289 826 315 826 q 188 767 197 826 q 183 725 183 744 q 224 613 183 667 q 271 588 242 588 q 411 664 313 588 q 546 740 510 740 q 590 710 575 740 q 615 622 615 661 q 604 564 615 594 z "},"G":{"ha":936,"x_min":25,"x_max":922,"o":"m 904 239 q 753 25 872 103 q 490 -47 640 -47 q 401 -40 446 -47 q 121 143 225 -12 q 25 481 25 286 q 31 564 25 522 q 156 842 50 725 q 411 1035 235 929 q 484 1088 447 1061 q 554 1114 521 1114 q 576 1111 565 1114 q 667 965 667 1093 q 649 846 667 908 q 549 764 629 778 q 389 754 468 760 q 254 689 293 744 q 171 457 171 574 q 226 276 171 363 q 346 153 276 199 q 497 104 421 104 q 604 131 553 104 q 726 226 671 165 q 785 346 785 293 q 750 410 785 386 q 722 419 736 419 q 635 312 689 419 q 536 204 582 204 q 517 207 526 204 q 401 326 444 231 q 392 371 392 349 q 496 508 392 447 q 710 565 596 565 q 876 497 828 565 q 922 358 922 435 q 904 239 922 313 z "},"H":{"ha":785,"x_min":18,"x_max":771,"o":"m 761 89 q 683 -42 771 6 q 503 -90 614 -81 q 421 3 421 -97 q 466 238 421 65 q 511 468 511 410 q 432 546 511 561 q 208 382 285 519 q 194 328 194 357 q 272 149 194 265 q 349 -4 349 32 q 303 -56 349 -40 q 185 -82 226 -82 q 118 -37 129 -82 q 18 660 18 390 q 38 1042 18 783 q 136 1099 42 1099 q 207 1094 157 1099 q 257 1036 257 1090 q 209 869 257 993 q 161 700 161 744 q 213 640 161 646 q 242 639 228 639 q 450 781 393 639 q 456 808 456 794 q 387 929 456 853 q 318 1033 318 1006 q 374 1086 318 1064 q 454 1106 418 1106 q 524 1060 513 1106 q 622 742 571 869 q 689 549 672 615 q 761 89 722 410 z "},"I":{"ha":353,"x_min":39,"x_max":331,"o":"m 324 39 q 297 -12 331 6 q 211 -31 263 -31 q 125 -14 161 -31 q 82 39 85 6 q 54 307 82 43 q 39 588 39 450 q 57 986 39 749 q 110 1018 60 1018 q 169 986 161 1018 q 261 567 238 725 q 283 333 271 506 q 324 39 293 196 z "},"J":{"ha":904,"x_min":0,"x_max":889,"o":"m 844 15 q 474 -144 736 -151 q 297 -109 371 -142 q 149 -3 222 -76 q 50 97 51 94 q 0 204 0 154 q 13 257 0 231 q 194 365 63 365 q 275 306 249 365 q 314 188 294 247 q 390 103 340 118 q 490 85 447 85 q 607 121 551 85 q 675 251 675 165 q 656 372 675 297 q 621 501 638 438 q 460 715 599 600 q 214 892 406 761 q 88 1008 88 978 q 153 1043 88 1033 q 211 1047 183 1047 q 358 1015 285 1047 q 501 935 408 994 q 708 728 635 850 q 819 449 767 632 q 865 300 843 375 q 889 164 889 219 q 844 15 889 85 z "},"K":{"ha":785,"x_min":28,"x_max":760,"o":"m 747 124 q 569 0 686 14 q 474 67 513 -7 q 417 206 444 136 q 344 282 383 282 q 314 274 331 282 q 282 222 282 257 q 335 92 282 186 q 389 -37 389 -3 q 356 -86 389 -72 q 299 -97 331 -97 q 184 -65 242 -97 q 115 0 126 -32 q 44 446 61 147 q 28 1111 35 604 q 82 1157 28 1157 q 238 1111 139 1157 q 289 1024 289 1088 q 267 903 289 988 q 244 783 244 819 q 293 693 244 719 q 331 683 313 683 q 435 778 382 683 q 519 956 478 867 q 611 1051 568 1051 q 653 1032 631 1051 q 731 843 731 964 q 726 774 731 814 q 632 649 719 699 q 474 574 553 611 q 390 449 390 525 q 486 326 390 376 q 664 254 575 290 q 760 164 760 214 q 747 124 760 146 z "},"L":{"ha":722,"x_min":31,"x_max":699,"o":"m 688 243 q 699 178 699 208 q 676 75 699 138 q 550 -61 646 -8 q 356 -110 461 -110 q 122 15 178 -110 q 31 506 31 222 q 44 793 31 615 q 69 1126 57 960 q 118 1186 72 1161 q 211 1207 161 1207 q 286 1157 290 1207 q 240 749 278 1064 q 218 435 218 549 q 244 176 218 301 q 292 133 254 133 q 460 208 333 133 q 633 283 588 283 q 688 243 674 283 z "},"M":{"ha":863,"x_min":-46,"x_max":840,"o":"m 761 1032 q 840 511 840 656 q 807 233 840 396 q 706 -199 789 142 q 661 -233 697 -233 q 582 -210 633 -233 q 499 -167 540 -187 q 446 -87 446 -140 q 567 151 446 -22 q 688 390 688 325 q 635 469 688 443 q 592 490 603 486 q 544 500 569 499 q 476 435 494 503 q 451 307 464 371 q 383 242 433 239 q 321 306 336 244 q 301 421 311 363 q 240 493 286 485 q 144 486 203 500 q 85 414 85 472 q 192 156 85 346 q 299 -83 299 -35 q 238 -128 299 -132 q 128 -118 144 -122 q 58 -58 72 -106 q -46 486 -46 299 q -19 725 -46 592 q 51 1032 -6 801 q 89 1061 58 1061 q 219 1011 108 1061 q 288 900 274 986 q 304 756 296 828 q 381 679 319 682 q 461 753 444 676 q 479 908 469 831 q 553 1026 494 1001 q 663 1050 611 1050 q 761 1032 706 1050 z "},"N":{"ha":876,"x_min":43,"x_max":882,"o":"m 701 -114 q 640 -125 671 -125 q 540 -107 613 -125 q 411 78 447 -83 q 381 364 400 132 q 329 511 368 511 q 282 483 311 511 q 247 397 247 450 q 308 208 247 336 q 368 38 368 81 q 310 -33 368 -15 q 182 -64 210 -64 q 129 -24 133 -64 q 71 453 100 215 q 44 1004 56 604 q 69 1035 43 1035 q 149 1006 92 1035 q 238 961 226 965 q 400 724 353 915 q 456 393 426 558 q 572 228 486 228 q 632 242 599 228 q 704 339 704 271 q 567 631 704 417 q 431 931 431 846 q 496 1035 431 1000 q 547 1069 503 1039 q 593 1092 578 1092 q 614 1076 607 1092 q 882 158 882 442 q 822 -40 882 26 q 701 -114 786 -82 z "},"O":{"ha":999,"x_min":4,"x_max":992,"o":"m 988 500 q 878 169 992 310 q 579 -3 765 29 q 493 -10 536 -10 q 204 88 332 -10 q 26 346 76 185 q 4 490 4 417 q 113 805 4 664 q 390 982 221 946 q 483 992 436 992 q 831 845 679 992 q 988 500 983 699 m 817 444 q 710 658 821 572 q 467 735 606 739 q 287 648 360 731 q 214 456 214 565 q 277 276 214 349 q 446 179 340 203 q 511 172 478 172 q 721 251 629 172 q 817 444 813 331 z "},"P":{"ha":757,"x_min":1,"x_max":740,"o":"m 733 826 q 668 692 740 746 q 515 606 592 649 q 399 476 422 549 q 388 410 388 444 q 423 263 388 357 q 458 121 458 168 q 436 33 458 75 q 400 -42 419 -4 q 346 -79 381 -81 q 263 -17 288 -78 q 71 506 110 353 q 3 926 51 582 q 1 950 1 939 q 96 1090 1 1040 q 307 1136 181 1136 q 479 1108 401 1136 q 733 826 715 1026 m 496 826 q 467 930 500 885 q 378 990 435 975 q 303 1000 340 1000 q 213 942 208 1000 q 225 806 224 807 q 265 703 244 754 q 321 661 279 661 q 432 716 372 661 q 496 826 492 771 z "},"Q":{"ha":999,"x_min":46,"x_max":949,"o":"m 943 668 q 900 397 939 506 q 831 268 876 332 q 793 197 793 219 q 838 110 793 165 q 885 74 849 96 q 922 32 914 56 q 932 -22 932 4 q 893 -104 932 -72 q 832 -125 867 -125 q 757 -101 792 -125 q 718 -36 718 -74 q 720 -6 718 -25 q 722 24 722 14 q 706 67 722 51 q 672 83 689 83 q 590 31 646 83 q 492 -31 531 -25 q 450 -33 471 -33 q 183 119 293 -33 q 56 449 89 251 q 46 568 46 507 q 147 931 46 778 q 443 1111 258 1097 q 795 993 642 1125 q 943 668 949 861 m 726 644 q 664 857 697 793 q 510 972 611 958 q 479 975 494 975 q 213 686 311 975 q 179 501 179 590 q 324 214 179 314 q 404 157 364 185 q 482 125 453 125 q 526 151 510 125 q 535 175 535 164 q 480 242 535 200 q 418 319 425 285 q 401 404 401 406 q 425 451 401 435 q 463 463 442 463 q 526 449 472 463 q 601 367 563 439 q 658 294 639 294 q 681 306 669 294 q 753 469 753 369 q 726 644 753 513 z "},"R":{"ha":858,"x_min":35,"x_max":825,"o":"m 774 996 q 825 832 825 915 q 771 668 825 749 q 652 603 742 624 q 534 540 563 582 q 506 456 506 499 q 572 290 506 403 q 642 106 638 178 q 651 54 643 88 q 658 6 658 21 q 642 -44 658 -22 q 582 -83 619 -74 q 506 -93 571 -86 q 406 67 406 -103 q 410 171 406 100 q 414 276 414 242 q 313 451 414 451 q 243 444 271 451 q 197 386 197 433 q 261 212 197 340 q 325 42 325 83 q 278 -10 325 -3 q 190 -21 200 -21 q 135 15 140 -21 q 65 475 76 376 q 38 993 44 657 q 353 1133 35 1133 q 456 1129 404 1133 q 638 1101 586 1118 q 774 996 725 1072 m 400 951 q 299 974 357 974 q 202 937 211 974 q 196 822 193 900 q 208 707 197 743 q 281 661 222 661 q 423 714 349 661 q 497 825 497 767 q 400 951 497 903 z "},"S":{"ha":1058,"x_min":19,"x_max":1025,"o":"m 975 611 q 1025 424 1025 524 q 946 176 1025 296 q 740 -21 867 56 q 454 -108 594 -108 q 189 -21 315 -108 q 102 42 144 10 q 53 125 60 75 q 50 153 50 139 q 132 300 50 235 q 188 321 157 321 q 299 276 222 321 q 419 231 376 231 q 457 238 439 231 q 621 347 558 272 q 683 517 683 421 q 681 551 683 533 q 603 624 672 624 q 424 577 558 624 q 226 531 290 531 q 115 576 154 531 q 19 814 19 689 q 46 950 19 879 q 383 1133 114 1133 q 513 1122 432 1133 q 640 1110 606 1111 q 700 1108 669 1110 q 746 1085 731 1106 q 761 1043 761 1065 q 719 939 761 1024 q 629 888 694 888 q 483 920 585 888 q 339 953 381 953 q 254 898 275 953 q 233 807 233 843 q 247 740 233 775 q 297 699 264 699 q 443 771 328 699 q 618 832 554 840 q 826 767 746 815 q 975 611 917 714 z "},"T":{"ha":918,"x_min":-33,"x_max":893,"o":"m 877 998 q 869 984 877 998 q 832 971 861 971 q 763 988 813 971 q 686 1006 714 1006 q 667 1004 681 1006 q 647 1003 654 1003 q 590 1004 574 1003 q 549 963 561 1000 q 532 854 532 910 q 603 597 532 744 q 746 331 674 464 q 856 36 832 164 q 809 -45 865 -12 q 682 -78 753 -78 q 563 -15 579 -78 q 381 667 513 194 q 367 775 369 703 q 354 875 364 847 q 293 939 339 921 q 171 942 238 960 q 127 912 153 936 q 79 886 101 888 q 1 935 36 883 q -33 1039 -33 986 q 6 1103 -33 1093 q 572 1194 372 1194 q 824 1165 700 1194 q 893 1061 893 1149 q 877 998 893 1025 z "},"U":{"ha":918,"x_min":50,"x_max":899,"o":"m 852 195 q 829 141 852 195 q 778 44 806 86 q 660 -62 733 -22 q 499 -115 564 -115 q 436 -107 468 -115 q 330 -56 379 -93 q 265 15 281 -19 q 88 521 117 365 q 51 1060 65 635 q 76 1111 50 1089 q 130 1148 103 1129 q 175 1167 157 1167 q 218 1025 218 1167 q 217 950 218 1003 q 215 869 215 897 q 244 651 215 719 q 339 361 292 506 q 526 218 401 211 q 621 239 578 221 q 699 347 699 271 q 631 546 699 411 q 531 767 546 717 q 390 981 508 836 q 283 1153 283 1113 q 339 1200 283 1189 q 372 1203 356 1203 q 511 1128 444 1203 q 628 979 569 1053 q 899 417 899 674 q 852 195 899 304 z "},"V":{"ha":985,"x_min":31,"x_max":997,"o":"m 872 1069 q 997 906 997 1015 q 915 664 997 821 q 765 378 840 521 q 685 76 685 203 q 692 0 685 36 q 726 -139 703 -42 q 733 -199 733 -174 q 693 -256 733 -256 q 456 -82 617 -256 q 169 317 289 97 q 31 750 31 571 q 49 864 31 814 q 150 1056 92 985 q 208 1093 181 1093 q 331 840 278 1093 q 408 369 369 604 q 490 117 450 117 q 533 168 510 117 q 583 333 544 193 q 600 478 600 394 q 579 715 600 558 q 558 932 558 872 q 713 1111 558 1119 q 872 1069 785 1107 z "},"W":{"ha":1086,"x_min":-156,"x_max":1068,"o":"m 929 1035 q 1068 81 1068 461 q 1000 -150 1068 -150 q 900 -65 961 -150 q 815 146 846 10 q 736 361 783 289 q 618 428 693 428 q 514 388 560 428 q 471 294 468 349 q 531 116 475 236 q 586 -39 586 -4 q 531 -90 586 -85 q 428 -58 478 -94 q 339 18 383 -19 q 7 432 169 144 q -156 886 -156 719 q -67 999 -156 999 q 0 986 -37 999 q 167 824 86 958 q 283 590 181 799 q 378 471 342 471 q 429 518 404 471 q 443 574 443 543 q 422 670 443 607 q 401 760 401 733 q 436 825 401 800 q 471 839 454 839 q 536 761 506 839 q 594 618 565 690 q 692 539 635 540 q 744 575 744 538 q 658 762 744 611 q 571 978 571 913 q 611 1053 571 1029 q 810 1113 713 1113 q 929 1035 910 1113 z "},"X":{"ha":1068,"x_min":-7,"x_max":1101,"o":"m 1096 25 q 914 -178 1057 -111 q 868 -189 890 -189 q 746 -40 796 -189 q 668 238 707 99 q 549 388 619 388 q 501 375 526 388 q 429 238 429 339 q 445 107 429 197 q 461 -22 461 17 q 385 -157 461 -124 q 239 -190 310 -190 q 29 -104 122 -190 q -7 -35 -7 -71 q 83 96 -7 18 q 253 238 168 167 q 343 406 343 326 q 340 438 343 422 q 233 569 324 514 q 79 656 157 613 q 6 790 1 710 q 117 1021 14 936 q 168 1043 143 1043 q 272 921 219 1043 q 365 696 319 808 q 499 574 426 574 q 533 581 515 574 q 615 746 615 610 q 609 849 615 779 q 603 950 603 919 q 693 1083 603 1079 q 914 993 811 1089 q 954 911 954 956 q 886 774 954 857 q 760 625 824 700 q 692 460 692 533 q 697 417 692 438 q 824 275 718 335 q 1008 186 917 231 q 1101 65 1101 135 q 1096 25 1101 46 z "},"Y":{"ha":988,"x_min":29,"x_max":969,"o":"m 967 868 q 896 782 958 806 q 765 753 889 779 q 639 693 679 733 q 575 526 575 628 q 640 250 575 436 q 706 -7 706 64 q 603 -160 706 -117 q 418 -204 501 -204 q 256 -168 340 -204 q 172 -58 172 -132 q 236 118 172 4 q 353 324 294 221 q 417 529 417 446 q 380 646 417 594 q 256 728 343 697 q 117 775 186 751 q 35 878 47 810 q 29 938 29 911 q 72 1081 29 1007 q 135 1119 94 1119 q 294 1038 192 1119 q 467 885 381 961 q 596 803 560 803 q 628 853 625 803 q 615 916 629 878 q 601 974 601 954 q 604 997 601 985 q 669 1086 619 1053 q 776 1117 715 1117 q 824 1111 800 1117 q 931 1038 893 1096 q 969 904 969 979 q 967 868 969 886 z "},"Z":{"ha":1132,"x_min":-87,"x_max":1146,"o":"m 1075 15 q 771 -36 951 3 q 549 -67 626 -67 q 65 71 371 -67 q 22 146 22 90 q 30 210 22 165 q 38 278 38 256 q 267 578 42 426 q 685 792 407 672 q 908 904 908 888 q 826 919 908 919 q 554 860 694 919 q 339 751 515 844 q 167 692 228 692 q 26 781 86 692 q -46 885 -10 833 q -87 986 -87 950 q -50 1035 -87 1021 q 281 1149 203 1128 q 565 1192 429 1192 q 1026 1119 740 1192 q 1117 1049 1085 1104 q 1146 928 1146 999 q 1071 728 1146 803 q 838 619 1061 718 q 449 431 582 507 q 243 235 243 311 q 310 163 243 192 q 369 140 340 149 q 421 132 394 132 q 593 206 499 132 q 749 343 671 275 q 894 417 836 417 q 981 378 940 417 q 1086 238 1039 321 q 1139 86 1139 146 q 1075 15 1139 22 z "},"a":{"ha":856,"x_min":22,"x_max":817,"o":"m 815 265 q 817 214 817 238 q 743 17 817 94 q 594 -46 683 -46 q 335 25 524 -46 q 128 108 158 92 q 22 247 22 165 q 26 282 22 264 q 90 401 46 363 q 239 454 135 439 q 268 465 268 458 q 192 507 268 474 q 92 569 110 543 q 74 615 74 596 q 210 675 74 675 q 425 644 307 675 q 611 569 543 614 q 754 442 708 506 q 815 265 808 367 m 571 276 q 538 342 571 314 q 457 369 504 369 q 376 342 410 369 q 343 276 343 314 q 376 210 343 238 q 457 182 410 182 q 538 210 504 182 q 571 276 571 238 z "},"b":{"ha":783,"x_min":42,"x_max":744,"o":"m 683 454 q 744 322 744 406 q 688 154 744 239 q 551 33 632 69 q 440 7 494 7 q 299 38 385 7 q 67 246 126 99 q 44 332 47 294 q 47 433 42 361 q 56 686 50 511 q 49 759 57 714 q 42 824 42 804 q 103 944 42 889 q 231 999 165 999 q 293 983 263 999 q 331 935 331 964 q 265 822 331 907 q 203 682 199 736 q 239 522 211 582 q 347 410 274 451 q 399 396 371 396 q 514 435 438 396 q 625 475 590 475 q 683 454 657 475 m 519 208 q 490 251 519 233 q 419 269 461 269 q 349 251 378 269 q 319 208 319 233 q 349 164 319 182 q 419 146 378 146 q 490 164 461 146 q 519 208 519 182 z "},"c":{"ha":747,"x_min":46,"x_max":718,"o":"m 718 271 q 629 90 718 188 q 447 13 557 13 q 221 86 338 13 q 49 410 53 193 q 47 456 49 422 q 46 499 46 483 q 136 671 46 617 q 274 763 204 717 q 439 826 376 826 q 521 778 493 826 q 553 674 553 722 q 521 578 553 624 q 476 554 504 554 q 401 575 454 554 q 321 596 347 596 q 276 582 296 596 q 214 450 214 538 q 253 313 214 381 q 353 214 292 246 q 389 206 369 206 q 530 294 440 206 q 653 382 619 382 q 701 339 682 382 q 718 271 718 306 z "},"d":{"ha":824,"x_min":36,"x_max":789,"o":"m 746 133 q 656 47 719 74 q 522 13 635 39 q 363 -8 432 -8 q 110 110 197 -8 q 36 314 36 207 q 101 490 36 411 q 207 539 140 539 q 313 523 240 539 q 425 507 386 507 q 518 529 476 507 q 592 675 592 571 q 582 763 592 714 q 519 838 574 797 q 465 907 465 879 q 469 926 465 917 q 554 979 488 979 q 690 954 588 979 q 789 828 789 931 q 748 624 789 774 q 707 396 707 474 q 710 353 707 374 q 736 264 713 321 q 756 183 756 213 q 746 133 756 158 m 514 244 q 473 319 514 288 q 375 350 432 350 q 278 319 318 350 q 238 244 238 288 q 278 169 238 200 q 375 138 318 138 q 473 169 432 138 q 514 244 514 200 z "},"e":{"ha":872,"x_min":28,"x_max":846,"o":"m 840 165 q 768 13 835 83 q 617 -53 708 -53 q 364 13 551 -53 q 156 104 215 64 q 36 276 60 168 q 28 349 28 313 q 75 521 28 432 q 161 664 132 628 q 288 753 210 724 q 411 776 350 776 q 692 629 572 776 q 788 435 788 513 q 776 374 788 404 q 668 310 754 310 q 604 313 649 310 q 538 317 560 317 q 419 281 461 317 q 364 221 400 264 q 351 192 351 203 q 388 172 351 172 q 555 201 421 172 q 747 231 689 231 q 840 165 846 231 m 528 461 q 501 513 528 492 q 438 533 475 533 q 374 513 400 533 q 347 461 347 492 q 374 410 347 431 q 438 389 400 389 q 501 410 475 389 q 528 461 528 431 z "},"f":{"ha":611,"x_min":19,"x_max":571,"o":"m 553 429 q 508 397 549 397 q 459 403 494 397 q 407 408 424 408 q 351 382 365 408 q 340 339 340 361 q 351 283 340 319 q 368 221 365 242 q 403 107 372 181 q 429 6 429 40 q 408 -64 429 -31 q 368 -117 383 -103 q 313 -143 344 -139 q 211 -99 229 -153 q 194 10 194 -50 q 203 122 194 49 q 213 226 213 194 q 136 389 213 335 q 85 410 124 399 q 40 438 53 418 q 19 503 19 469 q 35 556 19 531 q 78 582 51 582 q 125 572 81 582 q 172 578 154 565 q 200 626 200 596 q 181 699 200 647 q 163 779 163 751 q 164 799 163 789 q 181 894 179 890 q 228 974 193 942 q 392 1039 297 1039 q 527 971 483 1039 q 571 860 571 903 q 544 806 571 825 q 504 792 526 792 q 465 799 490 792 q 424 810 432 808 q 361 846 399 814 q 304 874 325 874 q 283 869 294 874 q 250 821 250 856 q 319 663 250 783 q 364 608 336 633 q 419 558 392 583 q 510 501 428 550 q 553 429 560 471 z "},"g":{"ha":779,"x_min":28,"x_max":747,"o":"m 740 38 q 744 -32 740 18 q 747 -96 747 -74 q 693 -264 747 -196 q 464 -369 608 -369 q 231 -281 331 -369 q 181 -235 206 -258 q 157 -182 157 -212 q 222 -83 157 -122 q 249 -75 235 -75 q 328 -125 276 -75 q 408 -175 381 -175 q 435 -168 422 -175 q 501 -83 485 -137 q 513 -18 513 -44 q 483 53 513 25 q 451 67 468 67 q 385 39 432 67 q 310 11 339 11 q 206 18 240 11 q 114 65 156 29 q 28 256 28 136 q 33 325 28 288 q 294 586 61 510 q 358 596 328 596 q 569 499 436 596 q 710 297 674 421 q 740 38 735 215 m 424 278 q 394 340 424 314 q 322 367 364 367 q 249 340 279 367 q 219 278 219 314 q 249 216 219 242 q 322 190 279 190 q 394 216 364 190 q 424 278 424 242 z "},"h":{"ha":708,"x_min":19,"x_max":688,"o":"m 688 201 q 629 -19 688 85 q 485 -129 567 -129 q 429 -115 457 -129 q 336 -22 374 -86 q 325 22 325 -3 q 378 160 325 69 q 431 276 431 251 q 393 313 431 306 q 367 315 379 315 q 189 143 267 315 q 182 107 182 128 q 194 36 182 82 q 207 -26 207 -10 q 175 -64 207 -58 q 158 -65 167 -65 q 69 -22 125 -65 q 19 85 19 17 q 33 185 19 115 q 47 294 47 256 q 65 445 47 356 q 83 649 82 535 q 53 761 83 663 q 24 907 24 860 q 81 979 24 978 q 174 943 132 981 q 243 858 188 929 q 271 774 271 824 q 234 620 271 722 q 197 481 197 518 q 254 406 197 424 q 285 400 269 400 q 385 444 322 400 q 486 489 449 489 q 515 485 501 489 q 649 374 603 458 q 688 201 688 299 z "},"i":{"ha":442,"x_min":69,"x_max":375,"o":"m 331 943 q 299 839 331 882 q 225 796 268 796 q 150 839 181 796 q 119 943 119 882 q 150 1047 119 1004 q 225 1090 181 1090 q 299 1047 268 1090 q 331 943 331 1004 m 331 24 q 235 -35 314 -35 q 168 -24 201 -35 q 104 47 122 -7 q 81 154 93 101 q 69 256 69 207 q 99 456 69 285 q 229 725 144 725 q 251 721 240 725 q 315 631 304 700 q 331 499 322 565 q 360 374 346 435 q 375 264 375 313 q 331 24 375 178 z "},"j":{"ha":904,"x_min":31,"x_max":838,"o":"m 308 604 q 267 501 308 544 q 169 458 226 458 q 72 501 113 458 q 31 604 31 544 q 72 708 31 665 q 169 750 113 750 q 267 708 226 750 q 308 604 308 665 m 774 -304 q 683 -343 733 -335 q 581 -358 632 -351 q 442 -372 475 -372 q 307 -343 372 -372 q 140 -199 189 -290 q 79 10 79 -83 q 149 100 79 96 q 226 18 200 103 q 299 -99 258 -79 q 413 -132 368 -132 q 485 -114 449 -132 q 543 -19 543 -86 q 519 96 543 19 q 485 219 490 192 q 410 388 472 286 q 343 565 351 483 q 342 601 342 585 q 389 694 342 694 q 436 676 410 694 q 575 539 524 618 q 646 378 614 478 q 701 188 674 283 q 785 -6 713 151 q 838 -182 838 -119 q 774 -304 838 -257 z "},"k":{"ha":758,"x_min":35,"x_max":721,"o":"m 678 231 q 721 58 721 142 q 636 -76 721 -53 q 615 -79 625 -79 q 563 -16 576 -79 q 536 110 549 47 q 471 206 517 185 q 358 238 400 238 q 300 226 331 238 q 264 175 264 213 q 305 51 264 140 q 346 -72 346 -37 q 310 -124 346 -110 q 219 -140 265 -140 q 100 -64 113 -140 q 82 142 82 47 q 88 271 82 189 q 94 401 94 353 q 90 494 94 446 q 58 654 86 543 q 35 910 36 743 q 81 946 35 946 q 175 878 153 946 q 193 742 189 835 q 201 611 196 639 q 254 553 214 553 q 279 557 265 553 q 322 642 322 571 q 319 700 322 661 q 315 756 315 739 q 361 821 315 822 q 471 769 425 819 q 492 721 492 746 q 442 622 492 686 q 369 511 382 546 q 333 439 368 507 q 315 364 314 400 q 436 290 318 290 q 480 292 450 290 q 525 293 510 293 q 678 231 647 293 z "},"l":{"ha":429,"x_min":28,"x_max":414,"o":"m 403 113 q 333 17 397 76 q 192 -46 258 -53 q 121 40 121 -37 q 140 166 121 74 q 160 304 160 258 q 94 542 160 388 q 28 771 28 697 q 71 907 28 843 q 140 1007 126 990 q 217 1068 188 1068 q 256 1008 244 1068 q 261 929 261 975 q 257 799 261 926 q 260 650 253 713 q 308 507 268 575 q 378 396 343 451 q 414 231 414 325 q 403 113 414 178 z "},"m":{"ha":1117,"x_min":17,"x_max":1083,"o":"m 1025 608 q 1083 303 1083 415 q 1008 83 1083 158 q 936 15 974 49 q 861 -19 899 -19 q 829 -15 846 -19 q 776 71 782 0 q 756 193 767 168 q 701 328 729 260 q 640 408 669 408 q 613 394 626 408 q 599 353 599 379 q 599 336 599 347 q 600 319 600 325 q 582 279 600 292 q 567 274 574 274 q 515 333 547 274 q 461 392 483 392 q 447 388 454 392 q 421 333 421 374 q 421 313 421 328 q 422 290 422 297 q 417 253 422 268 q 388 149 401 201 q 326 68 368 97 q 158 10 246 10 q 67 72 79 10 q 17 428 17 321 q 188 743 17 663 q 408 813 336 813 q 522 754 483 813 q 535 708 535 733 q 522 649 535 689 q 510 588 510 608 q 522 544 510 564 q 560 515 539 515 q 639 583 588 515 q 735 708 688 646 q 844 775 794 775 q 874 769 858 775 q 964 726 949 740 q 1025 608 997 696 z "},"n":{"ha":842,"x_min":39,"x_max":804,"o":"m 733 74 q 543 -8 631 -8 q 485 -1 515 -8 q 414 133 414 15 q 422 245 414 169 q 429 350 429 321 q 376 439 429 439 q 358 438 368 439 q 299 419 339 435 q 272 374 272 403 q 290 304 272 354 q 308 226 308 254 q 306 204 308 215 q 268 56 276 78 q 189 -25 238 -25 q 164 -19 176 -25 q 101 100 101 3 q 103 146 101 114 q 104 194 104 178 q 72 414 104 264 q 39 622 39 564 q 154 769 39 754 q 189 772 172 772 q 297 746 242 772 q 403 686 308 740 q 671 472 556 597 q 804 213 804 328 q 733 74 804 131 z "},"o":{"ha":886,"x_min":19,"x_max":860,"o":"m 836 490 q 860 368 860 428 q 722 85 860 221 q 442 -44 593 -44 q 360 -36 403 -44 q 56 225 136 4 q 19 382 19 321 q 118 624 19 479 q 378 699 164 690 q 836 490 753 714 m 610 263 q 567 356 610 317 q 464 394 525 394 q 360 356 403 394 q 317 263 317 317 q 360 168 317 207 q 464 129 403 129 q 567 168 525 129 q 610 263 610 207 z "},"p":{"ha":943,"x_min":1,"x_max":885,"o":"m 878 614 q 885 567 885 589 q 782 432 885 490 q 578 332 679 382 q 433 175 458 265 q 418 74 418 125 q 426 -25 418 40 q 435 -128 435 -90 q 433 -169 435 -142 q 431 -208 431 -196 q 437 -303 431 -242 q 443 -390 443 -364 q 364 -540 443 -500 q 264 -564 319 -564 q 103 -511 174 -564 q 26 -374 28 -454 q 110 -260 26 -310 q 233 -156 211 -200 q 261 -43 261 -99 q 193 147 261 39 q 68 336 131 242 q 6 556 1 453 q 94 675 8 631 q 269 740 108 683 q 572 797 431 797 q 878 614 822 797 m 467 476 q 433 543 467 515 q 350 571 399 571 q 267 543 301 571 q 233 476 233 515 q 267 410 233 438 q 350 383 301 383 q 433 410 399 383 q 467 476 467 438 z "},"q":{"ha":793,"x_min":15,"x_max":757,"o":"m 732 -706 q 599 -746 689 -744 q 431 -637 492 -747 q 356 -411 394 -574 q 351 -372 351 -392 q 417 -196 351 -308 q 482 -40 482 -83 q 442 36 482 4 q 344 65 408 63 q 243 86 275 69 q 83 197 132 144 q 26 361 15 269 q 178 565 40 499 q 414 639 331 639 q 540 608 478 639 q 651 492 621 571 q 674 324 674 431 q 672 217 674 308 q 672 108 669 150 q 631 -119 676 15 q 583 -331 583 -260 q 592 -408 583 -369 q 682 -546 603 -461 q 757 -658 757 -624 q 732 -706 757 -683 m 508 324 q 479 389 508 361 q 408 417 450 417 q 338 389 367 417 q 308 324 308 361 q 338 258 308 285 q 408 231 367 231 q 479 258 450 231 q 508 324 508 285 z "},"r":{"ha":696,"x_min":47,"x_max":657,"o":"m 653 590 q 568 549 639 553 q 438 542 503 546 q 338 483 363 532 q 319 401 319 446 q 322 356 319 386 q 324 306 324 325 q 354 194 324 264 q 385 96 385 125 q 361 35 385 63 q 235 -21 313 -21 q 113 19 171 -21 q 47 182 47 65 q 58 288 47 225 q 79 460 68 374 q 128 590 89 526 q 276 738 197 700 q 415 775 354 775 q 531 743 474 775 q 657 614 657 674 q 653 590 657 601 z "},"s":{"ha":885,"x_min":32,"x_max":838,"o":"m 818 515 q 838 428 838 471 q 788 279 838 357 q 676 140 757 231 q 525 3 592 46 q 344 -50 440 -50 q 300 -47 324 -50 q 223 -37 261 -43 q 161 -3 185 -31 q 146 36 146 17 q 358 185 146 106 q 518 235 439 210 q 606 313 606 267 q 599 344 606 328 q 475 421 563 421 q 390 410 439 421 q 279 376 335 393 q 174 358 214 358 q 64 413 104 358 q 32 508 32 456 q 149 724 32 615 q 267 788 201 771 q 407 801 310 797 q 457 804 418 801 q 508 806 490 806 q 622 739 617 806 q 563 694 625 694 q 524 697 551 694 q 483 699 497 699 q 397 675 425 699 q 329 581 351 633 q 321 550 321 563 q 365 521 321 521 q 517 548 397 521 q 696 575 636 575 q 818 515 793 575 z "},"t":{"ha":647,"x_min":10,"x_max":597,"o":"m 592 593 q 507 542 586 549 q 396 501 418 533 q 365 419 365 457 q 378 300 365 424 q 393 219 379 282 q 406 132 406 165 q 378 38 406 78 q 324 -26 343 -10 q 251 -49 290 -54 q 183 75 183 -39 q 186 140 183 99 q 199 300 193 221 q 199 450 204 374 q 189 547 196 436 q 75 553 104 547 q 14 614 10 567 q 78 654 18 650 q 173 681 150 658 q 196 740 196 704 q 171 836 196 771 q 146 932 146 901 q 171 993 146 968 q 321 1065 243 1065 q 390 1050 356 1065 q 435 981 435 1031 q 419 894 435 956 q 403 800 403 832 q 422 732 403 761 q 528 668 440 703 q 592 593 597 640 z "},"u":{"ha":982,"x_min":22,"x_max":928,"o":"m 739 872 q 797 885 771 885 q 897 814 863 885 q 928 640 928 750 q 875 331 928 490 q 735 78 819 161 q 589 -39 651 -6 q 413 -81 511 -81 q 107 60 168 -81 q 22 353 22 251 q 76 578 22 453 q 151 692 101 632 q 278 771 219 771 q 321 758 301 771 q 369 674 363 732 q 383 561 376 617 q 389 514 389 539 q 367 383 389 468 q 346 267 346 299 q 408 179 346 200 q 442 174 426 174 q 517 242 492 174 q 543 394 532 285 q 568 556 557 514 q 576 628 576 586 q 575 654 576 638 q 575 681 575 672 q 610 792 575 749 q 739 872 646 835 z "},"v":{"ha":1086,"x_min":22,"x_max":1057,"o":"m 863 1035 q 1011 899 960 1001 q 1057 667 1057 803 q 1018 413 1057 542 q 908 186 979 283 q 811 65 843 96 q 681 -12 756 11 q 529 -29 621 -32 q 257 56 364 -24 q 47 307 163 125 q 22 449 22 346 q 82 676 22 590 q 122 738 103 707 q 181 775 147 767 q 197 776 190 776 q 265 694 242 776 q 314 556 296 582 q 378 440 338 524 q 439 339 413 367 q 539 296 479 296 q 638 363 611 296 q 664 515 653 400 q 699 682 675 629 q 740 834 719 728 q 775 974 761 940 q 840 1038 799 1038 q 863 1035 850 1038 z "},"w":{"ha":1232,"x_min":26,"x_max":1182,"o":"m 1082 392 q 1040 142 1061 267 q 935 3 1010 3 q 900 8 918 3 q 839 86 856 22 q 818 199 829 142 q 756 260 803 256 q 682 208 701 265 q 658 85 669 146 q 600 -24 642 6 q 396 -93 506 -93 q 167 -29 290 -93 q 26 201 26 42 q 101 504 26 314 q 235 824 168 664 q 399 928 274 928 q 514 897 461 928 q 554 832 554 872 q 505 703 554 799 q 456 553 456 607 q 458 528 456 540 q 469 399 464 464 q 532 328 481 331 q 592 397 579 326 q 624 519 608 497 q 668 606 644 563 q 732 651 692 650 q 776 604 765 653 q 788 511 782 558 q 821 464 794 464 q 832 465 825 464 q 876 499 858 472 q 910 553 893 526 q 964 706 951 607 q 982 860 981 851 q 1072 965 1003 938 q 1118 975 1099 975 q 1182 867 1182 975 q 1144 631 1182 785 q 1082 392 1114 511 z "},"x":{"ha":1201,"x_min":15,"x_max":1169,"o":"m 1167 310 q 1107 108 1169 194 q 935 -1 1044 22 q 913 -4 924 -4 q 799 92 849 -4 q 721 268 760 179 q 622 364 675 364 q 582 353 604 364 q 529 253 529 325 q 543 149 529 221 q 557 46 557 78 q 503 -55 557 -26 q 376 -83 449 -83 q 204 -35 278 -83 q 129 101 126 19 q 201 183 132 163 q 339 210 269 196 q 449 281 422 229 q 465 346 465 315 q 371 476 465 414 q 179 586 275 531 q 24 732 61 657 q 15 768 15 750 q 136 907 15 829 q 176 919 156 919 q 285 833 226 919 q 382 675 333 754 q 475 589 436 589 q 519 616 500 589 q 538 669 538 643 q 483 796 538 710 q 429 924 429 882 q 449 978 429 953 q 629 1058 508 1058 q 792 1015 717 1058 q 897 893 872 968 q 904 858 904 875 q 832 753 904 806 q 701 665 767 710 q 639 543 633 608 q 783 433 647 449 q 1032 421 907 426 q 1167 310 1164 404 z "},"y":{"ha":958,"x_min":14,"x_max":915,"o":"m 764 -131 q 713 -285 739 -208 q 651 -415 685 -367 q 539 -521 608 -479 q 288 -615 381 -615 q 158 -564 213 -615 q 90 -462 117 -525 q 63 -343 63 -400 q 140 -219 63 -244 q 161 -217 151 -217 q 256 -301 201 -217 q 354 -386 311 -386 q 372 -383 364 -386 q 458 -319 425 -371 q 513 -215 485 -268 q 660 150 660 42 q 621 200 660 200 q 593 196 608 200 q 535 164 563 188 q 481 122 483 124 q 393 40 472 117 q 296 0 347 -4 q 192 69 232 4 q 129 200 161 135 q 14 642 14 414 q 185 907 14 893 q 257 796 228 911 q 318 593 297 632 q 357 483 335 561 q 393 385 376 411 q 471 349 421 344 q 569 418 535 354 q 611 550 590 457 q 614 571 614 561 q 522 729 614 632 q 429 857 429 826 q 465 901 429 883 q 526 917 496 917 q 615 892 564 917 q 708 843 663 867 q 915 483 915 743 q 867 179 915 357 q 764 -131 838 72 z "},"z":{"ha":1288,"x_min":19,"x_max":1264,"o":"m 1215 99 q 1264 18 1264 56 q 1165 -65 1264 -35 q 926 -93 1072 -93 q 550 -44 728 -93 q 264 110 349 11 q 204 181 214 168 q 167 264 178 218 q 164 289 164 276 q 274 396 164 357 q 476 457 375 426 q 586 567 586 499 q 583 590 586 578 q 425 671 567 671 q 222 648 356 671 q 57 625 88 625 q 19 642 19 625 q 39 678 19 656 q 104 751 93 742 q 193 779 142 783 q 264 778 225 778 q 506 791 342 778 q 742 804 669 804 q 1011 649 1011 804 q 1007 607 1011 629 q 878 471 992 519 q 679 400 778 436 q 579 264 575 353 q 738 143 582 143 q 865 151 775 143 q 1004 160 956 160 q 1215 99 1144 160 z "}}}
